<mxfile host="app.diagrams.net" modified="2024-02-26T07:51:00.935Z" agent="Mozilla/5.0 (Windows NT 10.0; Win64; x64; rv:109.0) Gecko/20100101 Firefox/115.0" etag="nx4ZnixtBzBiiWJ5Ka1Y" version="23.1.5" type="github">
  <diagram id="C5RBs43oDa-KdzZeNtuy" name="Page-1">
    <mxGraphModel dx="1434" dy="841" grid="1" gridSize="10" guides="1" tooltips="1" connect="1" arrows="1" fold="1" page="1" pageScale="1" pageWidth="827" pageHeight="1169" math="0" shadow="0">
      <root>
        <mxCell id="WIyWlLk6GJQsqaUBKTNV-0" />
        <mxCell id="WIyWlLk6GJQsqaUBKTNV-1" parent="WIyWlLk6GJQsqaUBKTNV-0" />
        <mxCell id="gfK6d-LSsx4qD43SD-eZ-4" value="" style="edgeStyle=orthogonalEdgeStyle;rounded=0;orthogonalLoop=1;jettySize=auto;html=1;" edge="1" parent="WIyWlLk6GJQsqaUBKTNV-1" source="gfK6d-LSsx4qD43SD-eZ-0" target="gfK6d-LSsx4qD43SD-eZ-3">
          <mxGeometry relative="1" as="geometry" />
        </mxCell>
        <mxCell id="gfK6d-LSsx4qD43SD-eZ-0" value="Start" style="strokeWidth=2;html=1;shape=mxgraph.flowchart.terminator;whiteSpace=wrap;" vertex="1" parent="WIyWlLk6GJQsqaUBKTNV-1">
          <mxGeometry x="75" y="140" width="100" height="60" as="geometry" />
        </mxCell>
        <mxCell id="gfK6d-LSsx4qD43SD-eZ-1" value="DiagnosePresenter" style="text;html=1;align=left;verticalAlign=middle;resizable=0;points=[];autosize=1;strokeColor=none;fillColor=none;" vertex="1" parent="WIyWlLk6GJQsqaUBKTNV-1">
          <mxGeometry x="55" y="20" width="110" height="30" as="geometry" />
        </mxCell>
        <mxCell id="gfK6d-LSsx4qD43SD-eZ-2" value="runDiagnoseButtonClicked" style="text;html=1;align=left;verticalAlign=middle;resizable=0;points=[];autosize=1;strokeColor=none;fillColor=none;" vertex="1" parent="WIyWlLk6GJQsqaUBKTNV-1">
          <mxGeometry x="55" y="50" width="140" height="30" as="geometry" />
        </mxCell>
        <mxCell id="gfK6d-LSsx4qD43SD-eZ-6" style="edgeStyle=orthogonalEdgeStyle;rounded=0;orthogonalLoop=1;jettySize=auto;html=1;entryX=0.5;entryY=0;entryDx=0;entryDy=0;" edge="1" parent="WIyWlLk6GJQsqaUBKTNV-1" source="gfK6d-LSsx4qD43SD-eZ-3" target="gfK6d-LSsx4qD43SD-eZ-5">
          <mxGeometry relative="1" as="geometry" />
        </mxCell>
        <mxCell id="gfK6d-LSsx4qD43SD-eZ-3" value="get connection type" style="shape=parallelogram;perimeter=parallelogramPerimeter;whiteSpace=wrap;html=1;fixedSize=1;" vertex="1" parent="WIyWlLk6GJQsqaUBKTNV-1">
          <mxGeometry x="270" y="140" width="120" height="60" as="geometry" />
        </mxCell>
        <mxCell id="gfK6d-LSsx4qD43SD-eZ-10" value="" style="edgeStyle=orthogonalEdgeStyle;rounded=0;orthogonalLoop=1;jettySize=auto;html=1;entryX=0.5;entryY=0;entryDx=0;entryDy=0;" edge="1" parent="WIyWlLk6GJQsqaUBKTNV-1" source="gfK6d-LSsx4qD43SD-eZ-5" target="gfK6d-LSsx4qD43SD-eZ-15">
          <mxGeometry relative="1" as="geometry" />
        </mxCell>
        <mxCell id="gfK6d-LSsx4qD43SD-eZ-13" value="False" style="edgeLabel;html=1;align=center;verticalAlign=middle;resizable=0;points=[];" vertex="1" connectable="0" parent="gfK6d-LSsx4qD43SD-eZ-10">
          <mxGeometry x="-0.02" y="-2" relative="1" as="geometry">
            <mxPoint y="-22" as="offset" />
          </mxGeometry>
        </mxCell>
        <mxCell id="gfK6d-LSsx4qD43SD-eZ-11" value="" style="edgeStyle=orthogonalEdgeStyle;rounded=0;orthogonalLoop=1;jettySize=auto;html=1;entryX=0.5;entryY=0;entryDx=0;entryDy=0;" edge="1" parent="WIyWlLk6GJQsqaUBKTNV-1" source="gfK6d-LSsx4qD43SD-eZ-5" target="gfK6d-LSsx4qD43SD-eZ-14">
          <mxGeometry relative="1" as="geometry">
            <mxPoint x="135" y="650" as="targetPoint" />
          </mxGeometry>
        </mxCell>
        <mxCell id="gfK6d-LSsx4qD43SD-eZ-12" value="True" style="edgeLabel;html=1;align=center;verticalAlign=middle;resizable=0;points=[];" vertex="1" connectable="0" parent="gfK6d-LSsx4qD43SD-eZ-11">
          <mxGeometry x="-0.484" y="-3" relative="1" as="geometry">
            <mxPoint x="9" y="-17" as="offset" />
          </mxGeometry>
        </mxCell>
        <mxCell id="gfK6d-LSsx4qD43SD-eZ-5" value="is connected" style="rhombus;whiteSpace=wrap;html=1;" vertex="1" parent="WIyWlLk6GJQsqaUBKTNV-1">
          <mxGeometry x="400" y="220" width="80" height="80" as="geometry" />
        </mxCell>
        <mxCell id="gfK6d-LSsx4qD43SD-eZ-8" value="send to ftp" style="rounded=1;whiteSpace=wrap;html=1;fontSize=12;glass=0;strokeWidth=1;shadow=0;" vertex="1" parent="WIyWlLk6GJQsqaUBKTNV-1">
          <mxGeometry x="680" y="180" width="120" height="40" as="geometry" />
        </mxCell>
        <mxCell id="gfK6d-LSsx4qD43SD-eZ-14" value="get selected command" style="shape=parallelogram;perimeter=parallelogramPerimeter;whiteSpace=wrap;html=1;fixedSize=1;" vertex="1" parent="WIyWlLk6GJQsqaUBKTNV-1">
          <mxGeometry x="75" y="650" width="135" height="60" as="geometry" />
        </mxCell>
        <mxCell id="gfK6d-LSsx4qD43SD-eZ-16" style="edgeStyle=orthogonalEdgeStyle;rounded=0;orthogonalLoop=1;jettySize=auto;html=1;entryX=1;entryY=0.5;entryDx=0;entryDy=0;" edge="1" parent="WIyWlLk6GJQsqaUBKTNV-1" source="gfK6d-LSsx4qD43SD-eZ-15" target="gfK6d-LSsx4qD43SD-eZ-18">
          <mxGeometry relative="1" as="geometry">
            <mxPoint x="490" y="340" as="targetPoint" />
          </mxGeometry>
        </mxCell>
        <mxCell id="gfK6d-LSsx4qD43SD-eZ-20" value="Telnet" style="edgeLabel;html=1;align=center;verticalAlign=middle;resizable=0;points=[];" vertex="1" connectable="0" parent="gfK6d-LSsx4qD43SD-eZ-16">
          <mxGeometry y="-1" relative="1" as="geometry">
            <mxPoint as="offset" />
          </mxGeometry>
        </mxCell>
        <mxCell id="gfK6d-LSsx4qD43SD-eZ-21" style="edgeStyle=orthogonalEdgeStyle;rounded=0;orthogonalLoop=1;jettySize=auto;html=1;entryX=0.5;entryY=0;entryDx=0;entryDy=0;" edge="1" parent="WIyWlLk6GJQsqaUBKTNV-1" source="gfK6d-LSsx4qD43SD-eZ-15" target="gfK6d-LSsx4qD43SD-eZ-22">
          <mxGeometry relative="1" as="geometry">
            <mxPoint x="640" y="440" as="targetPoint" />
          </mxGeometry>
        </mxCell>
        <mxCell id="gfK6d-LSsx4qD43SD-eZ-23" value="Serial com" style="edgeLabel;html=1;align=center;verticalAlign=middle;resizable=0;points=[];" vertex="1" connectable="0" parent="gfK6d-LSsx4qD43SD-eZ-21">
          <mxGeometry x="-0.1" relative="1" as="geometry">
            <mxPoint x="30" as="offset" />
          </mxGeometry>
        </mxCell>
        <mxCell id="gfK6d-LSsx4qD43SD-eZ-15" value="conenction&lt;br&gt;type" style="rhombus;whiteSpace=wrap;html=1;" vertex="1" parent="WIyWlLk6GJQsqaUBKTNV-1">
          <mxGeometry x="600" y="300" width="80" height="80" as="geometry" />
        </mxCell>
        <mxCell id="gfK6d-LSsx4qD43SD-eZ-17" value="send to ftp" style="rounded=1;whiteSpace=wrap;html=1;fontSize=12;glass=0;strokeWidth=1;shadow=0;" vertex="1" parent="WIyWlLk6GJQsqaUBKTNV-1">
          <mxGeometry x="560" y="140" width="120" height="40" as="geometry" />
        </mxCell>
        <mxCell id="gfK6d-LSsx4qD43SD-eZ-18" value="" style="shape=parallelogram;perimeter=parallelogramPerimeter;whiteSpace=wrap;html=1;fixedSize=1;" vertex="1" parent="WIyWlLk6GJQsqaUBKTNV-1">
          <mxGeometry x="370" y="310" width="120" height="60" as="geometry" />
        </mxCell>
        <mxCell id="gfK6d-LSsx4qD43SD-eZ-22" value="" style="shape=parallelogram;perimeter=parallelogramPerimeter;whiteSpace=wrap;html=1;fixedSize=1;" vertex="1" parent="WIyWlLk6GJQsqaUBKTNV-1">
          <mxGeometry x="580" y="440" width="120" height="60" as="geometry" />
        </mxCell>
      </root>
    </mxGraphModel>
  </diagram>
</mxfile>
